<svg width="1920" height="1159" viewBox="0 0 1920 1159" fill="none" xmlns="http://www.w3.org/2000/svg">
<path d="M1920 -2.5C1920 76.6671 1818.86 152.592 1638.82 208.571C1458.79 264.551 1214.61 296 960 296C705.392 296 461.212 264.551 281.178 208.571C101.143 152.592 3.84447e-05 76.6672 0 -2.49997L960 -2.5H1920Z" fill="#D9D9D9"/>
<path d="M1920 -2.5C1920 76.6671 1818.86 152.592 1638.82 208.571C1458.79 264.551 1214.61 296 960 296C705.392 296 461.212 264.551 281.178 208.571C101.143 152.592 3.84447e-05 76.6672 0 -2.49997L960 -2.5H1920Z" fill="url(#paint0_linear_4003_2339)"/>
<path d="M2.60083e-05 1160.5C3.29061e-05 1081.6 101.143 1005.93 281.178 950.136C461.212 894.344 705.392 863 960 863C1214.61 863 1458.79 894.344 1638.82 950.136C1818.86 1005.93 1920 1081.6 1920 1160.5L960 1160.5L2.60083e-05 1160.5Z" fill="#D9D9D9"/>
<path d="M2.60083e-05 1160.5C3.29061e-05 1081.6 101.143 1005.93 281.178 950.136C461.212 894.344 705.392 863 960 863C1214.61 863 1458.79 894.344 1638.82 950.136C1818.86 1005.93 1920 1081.6 1920 1160.5L960 1160.5L2.60083e-05 1160.5Z" fill="url(#paint1_linear_4003_2339)"/>
<g clip-path="url(#clip0_4003_2339)">
<g opacity="0.05" clip-path="url(#clip1_4003_2339)">
<path d="M1268.27 342.863C1215.53 401.668 1230.89 499.672 1259.8 603.332L1417.41 438.315C1448.56 342.142 1330.11 273.639 1268.27 342.863Z" fill="#ED1C24"/>
<path d="M1417.42 438.315L1259.81 603.332C1364.68 627.464 1463.28 638.329 1519.6 582.939C1585.93 517.977 1512.07 402.803 1417.42 438.315Z" fill="#F05A8E"/>
</g>
<g opacity="0.05" clip-path="url(#clip2_4003_2339)">
<path d="M1653.58 1134.39C1665.68 1212.44 1751.24 1262.63 1849.77 1305.92L1821.92 1079.43C1767.23 994.413 1639.19 1042.68 1653.58 1134.39Z" fill="#ED1C24"/>
<path d="M1821.92 1079.43L1849.78 1305.92C1934.88 1240.05 2005.74 1170.63 1998.56 1091.97C1990.3 999.496 1854.39 983.695 1821.92 1079.43Z" fill="#F05A8E"/>
</g>
<g opacity="0.2" clip-path="url(#clip3_4003_2339)">
<path d="M1553.37 115.832C1543.34 127.018 1546.26 145.662 1551.76 165.382L1581.74 133.99C1587.67 115.695 1565.13 102.663 1553.37 115.832Z" fill="#ED1C24"/>
<path d="M1581.74 133.99L1551.76 165.382C1571.71 169.972 1590.47 172.039 1601.18 161.502C1613.8 149.144 1599.75 127.234 1581.74 133.99Z" fill="#F05A8E"/>
</g>
<g opacity="0.1" clip-path="url(#clip4_4003_2339)">
<path d="M-231.92 558.439C-262.574 696.379 -152.679 835.724 -16.6827 971.997L84.353 576.469C48.5791 399.194 -196.202 396.264 -231.92 558.439Z" fill="#ED1C24"/>
<path d="M84.3539 576.469L-16.6818 971.997C168.01 917.649 331.287 848.116 370.526 712.356C416.973 552.896 200.801 438.085 84.3539 576.469Z" fill="#F05A8E"/>
</g>
<g opacity="0.2" clip-path="url(#clip5_4003_2339)">
<path d="M290.983 317.95C299.51 326.741 314.834 325.422 331.18 322.067L307.355 295.909C292.816 290.054 280.942 307.638 290.983 317.95Z" fill="#ED1C24"/>
<path d="M307.355 295.909L331.18 322.067C336.043 306.106 338.787 290.972 330.827 281.663C321.495 270.704 302.883 280.886 307.355 295.909Z" fill="#F05A8E"/>
</g>
</g>
<defs>
<linearGradient id="paint0_linear_4003_2339" x1="960" y1="-2.20474" x2="1003.75" y2="289.438" gradientUnits="userSpaceOnUse">
<stop stop-color="#F05A8E"/>
<stop offset="1" stop-color="#ED1C24"/>
</linearGradient>
<linearGradient id="paint1_linear_4003_2339" x1="960" y1="1160.21" x2="916.541" y2="869.497" gradientUnits="userSpaceOnUse">
<stop stop-color="#F05A8E"/>
<stop offset="1" stop-color="#ED1C24"/>
</linearGradient>
<clipPath id="clip0_4003_2339">
<rect width="1920" height="1159" fill="white"/>
</clipPath>
<clipPath id="clip1_4003_2339">
<rect width="332.042" height="300.198" fill="white" transform="translate(1460.82 264.898) rotate(71.0115)"/>
</clipPath>
<clipPath id="clip2_4003_2339">
<rect width="332.042" height="300.198" fill="white" transform="translate(1715.22 936) rotate(20.3143)"/>
</clipPath>
<clipPath id="clip3_4003_2339">
<rect width="63.1658" height="57.1079" fill="white" transform="translate(1590 101) rotate(71.0115)"/>
</clipPath>
<clipPath id="clip4_4003_2339">
<rect width="594.013" height="537.044" fill="white" transform="translate(-0.0507812 268) rotate(41.656)"/>
</clipPath>
<clipPath id="clip5_4003_2339">
<rect width="51.4833" height="46.5459" fill="white" transform="translate(281 287.325) rotate(-15)"/>
</clipPath>
</defs>
</svg>
