<svg width="72" height="72" viewBox="0 0 72 72" fill="none" xmlns="http://www.w3.org/2000/svg">
<rect x="0.320113" y="0.320113" width="71.3598" height="71.3598" rx="35.6799" stroke="white" stroke-width="0.640226"/>
<rect x="0.320113" y="0.320113" width="71.3598" height="71.3598" rx="35.6799" stroke="url(#paint0_linear_990_1958)" stroke-width="0.640226"/>
<circle cx="36.0004" cy="35.9999" r="30.6" fill="#D9D9D9"/>
<circle cx="36.0004" cy="35.9999" r="30.6" fill="url(#paint1_linear_990_1958)"/>
<path d="M47.925 49.5C44.8 49.5 41.7065 48.825 38.6445 47.475C35.5825 46.125 32.801 44.2 30.3 41.7C27.799 39.2 25.874 36.425 24.525 33.375C23.176 30.325 22.501 27.225 22.5 24.075V22.5H31.35L32.7375 30.0375L28.4625 34.35C29.0125 35.325 29.625 36.25 30.3 37.125C30.975 38 31.7 38.8125 32.475 39.5625C33.2 40.2875 33.994 40.9815 34.857 41.6445C35.72 42.3075 36.651 42.926 37.65 43.5L42 39.15L49.5 40.6875V49.5H47.925Z" fill="white"/>
<defs>
<linearGradient id="paint0_linear_990_1958" x1="1.96259e-07" y1="36" x2="51.6796" y2="43.4538" gradientUnits="userSpaceOnUse">
<stop stop-color="#F05A8E"/>
<stop offset="1" stop-color="#ED1C24"/>
</linearGradient>
<linearGradient id="paint1_linear_990_1958" x1="5.40039" y1="35.9999" x2="49.3281" y2="42.3356" gradientUnits="userSpaceOnUse">
<stop stop-color="#F05A8E"/>
<stop offset="1" stop-color="#ED1C24"/>
</linearGradient>
</defs>
</svg>
