<svg width="33" height="32" viewBox="0 0 33 32" fill="none" xmlns="http://www.w3.org/2000/svg">
<path d="M16.6693 21.3334C18.0838 21.3334 19.4403 20.7715 20.4405 19.7713C21.4407 18.7711 22.0026 17.4146 22.0026 16.0001C22.0026 14.5856 21.4407 13.229 20.4405 12.2288C19.4403 11.2287 18.0838 10.6667 16.6693 10.6667C15.2548 10.6667 13.8982 11.2287 12.898 12.2288C11.8978 13.229 11.3359 14.5856 11.3359 16.0001C11.3359 17.4146 11.8978 18.7711 12.898 19.7713C13.8982 20.7715 15.2548 21.3334 16.6693 21.3334Z" stroke="#D9D9D9" stroke-width="2" stroke-linecap="round" stroke-linejoin="round"/>
<path d="M16.6693 21.3334C18.0838 21.3334 19.4403 20.7715 20.4405 19.7713C21.4407 18.7711 22.0026 17.4146 22.0026 16.0001C22.0026 14.5856 21.4407 13.229 20.4405 12.2288C19.4403 11.2287 18.0838 10.6667 16.6693 10.6667C15.2548 10.6667 13.8982 11.2287 12.898 12.2288C11.8978 13.229 11.3359 14.5856 11.3359 16.0001C11.3359 17.4146 11.8978 18.7711 12.898 19.7713C13.8982 20.7715 15.2548 21.3334 16.6693 21.3334Z" stroke="url(#paint0_linear_1118_1304)" stroke-width="2" stroke-linecap="round" stroke-linejoin="round"/>
<path d="M4.66797 21.3333V10.6667C4.66797 8.89856 5.37035 7.20286 6.62059 5.95262C7.87083 4.70238 9.56653 4 11.3346 4H22.0013C23.7694 4 25.4651 4.70238 26.7153 5.95262C27.9656 7.20286 28.668 8.89856 28.668 10.6667V21.3333C28.668 23.1014 27.9656 24.7971 26.7153 26.0474C25.4651 27.2976 23.7694 28 22.0013 28H11.3346C9.56653 28 7.87083 27.2976 6.62059 26.0474C5.37035 24.7971 4.66797 23.1014 4.66797 21.3333Z" stroke="#D9D9D9" stroke-width="2"/>
<path d="M4.66797 21.3333V10.6667C4.66797 8.89856 5.37035 7.20286 6.62059 5.95262C7.87083 4.70238 9.56653 4 11.3346 4H22.0013C23.7694 4 25.4651 4.70238 26.7153 5.95262C27.9656 7.20286 28.668 8.89856 28.668 10.6667V21.3333C28.668 23.1014 27.9656 24.7971 26.7153 26.0474C25.4651 27.2976 23.7694 28 22.0013 28H11.3346C9.56653 28 7.87083 27.2976 6.62059 26.0474C5.37035 24.7971 4.66797 23.1014 4.66797 21.3333Z" stroke="url(#paint1_linear_1118_1304)" stroke-width="2"/>
<path d="M24 8.67903L24.0125 8.66528" stroke="#D9D9D9" stroke-width="2" stroke-linecap="round" stroke-linejoin="round"/>
<path d="M24 8.67903L24.0125 8.66528" stroke="url(#paint2_linear_1118_1304)" stroke-width="2" stroke-linecap="round" stroke-linejoin="round"/>
<defs>
<linearGradient id="paint0_linear_1118_1304" x1="11.3359" y1="16.0001" x2="18.9922" y2="17.1043" gradientUnits="userSpaceOnUse">
<stop stop-color="#F05A8E"/>
<stop offset="1" stop-color="#ED1C24"/>
</linearGradient>
<linearGradient id="paint1_linear_1118_1304" x1="4.66797" y1="16" x2="21.8945" y2="18.4846" gradientUnits="userSpaceOnUse">
<stop stop-color="#F05A8E"/>
<stop offset="1" stop-color="#ED1C24"/>
</linearGradient>
<linearGradient id="paint2_linear_1118_1304" x1="24" y1="8.67216" x2="24.009" y2="8.67334" gradientUnits="userSpaceOnUse">
<stop stop-color="#F05A8E"/>
<stop offset="1" stop-color="#ED1C24"/>
</linearGradient>
</defs>
</svg>
