<svg width="33" height="32" viewBox="0 0 33 32" fill="none" xmlns="http://www.w3.org/2000/svg">
<path d="M26.0013 4C26.7085 4 27.3868 4.28095 27.8869 4.78105C28.387 5.28115 28.668 5.95942 28.668 6.66667V25.3333C28.668 26.0406 28.387 26.7189 27.8869 27.219C27.3868 27.719 26.7085 28 26.0013 28H7.33464C6.62739 28 5.94911 27.719 5.44902 27.219C4.94892 26.7189 4.66797 26.0406 4.66797 25.3333V6.66667C4.66797 5.95942 4.94892 5.28115 5.44902 4.78105C5.94911 4.28095 6.62739 4 7.33464 4H26.0013ZM25.3346 24.6667V17.6C25.3346 16.4472 24.8767 15.3416 24.0615 14.5264C23.2464 13.7113 22.1408 13.2533 20.988 13.2533C19.8546 13.2533 18.5346 13.9467 17.8946 14.9867V13.5067H14.1746V24.6667H17.8946V18.0933C17.8946 17.0667 18.7213 16.2267 19.748 16.2267C20.243 16.2267 20.7178 16.4233 21.0679 16.7734C21.418 17.1235 21.6146 17.5983 21.6146 18.0933V24.6667H25.3346ZM9.8413 11.4133C10.4354 11.4133 11.0051 11.1773 11.4252 10.7573C11.8453 10.3372 12.0813 9.76742 12.0813 9.17333C12.0813 7.93333 11.0813 6.92 9.8413 6.92C9.24368 6.92 8.67054 7.1574 8.24795 7.57999C7.82537 8.00257 7.58797 8.57571 7.58797 9.17333C7.58797 10.4133 8.6013 11.4133 9.8413 11.4133ZM11.6946 24.6667V13.5067H8.0013V24.6667H11.6946Z" fill="#D9D9D9"/>
<path d="M26.0013 4C26.7085 4 27.3868 4.28095 27.8869 4.78105C28.387 5.28115 28.668 5.95942 28.668 6.66667V25.3333C28.668 26.0406 28.387 26.7189 27.8869 27.219C27.3868 27.719 26.7085 28 26.0013 28H7.33464C6.62739 28 5.94911 27.719 5.44902 27.219C4.94892 26.7189 4.66797 26.0406 4.66797 25.3333V6.66667C4.66797 5.95942 4.94892 5.28115 5.44902 4.78105C5.94911 4.28095 6.62739 4 7.33464 4H26.0013ZM25.3346 24.6667V17.6C25.3346 16.4472 24.8767 15.3416 24.0615 14.5264C23.2464 13.7113 22.1408 13.2533 20.988 13.2533C19.8546 13.2533 18.5346 13.9467 17.8946 14.9867V13.5067H14.1746V24.6667H17.8946V18.0933C17.8946 17.0667 18.7213 16.2267 19.748 16.2267C20.243 16.2267 20.7178 16.4233 21.0679 16.7734C21.418 17.1235 21.6146 17.5983 21.6146 18.0933V24.6667H25.3346ZM9.8413 11.4133C10.4354 11.4133 11.0051 11.1773 11.4252 10.7573C11.8453 10.3372 12.0813 9.76742 12.0813 9.17333C12.0813 7.93333 11.0813 6.92 9.8413 6.92C9.24368 6.92 8.67054 7.1574 8.24795 7.57999C7.82537 8.00257 7.58797 8.57571 7.58797 9.17333C7.58797 10.4133 8.6013 11.4133 9.8413 11.4133ZM11.6946 24.6667V13.5067H8.0013V24.6667H11.6946Z" fill="url(#paint0_linear_1118_1302)"/>
<defs>
<linearGradient id="paint0_linear_1118_1302" x1="4.66797" y1="16" x2="21.8945" y2="18.4846" gradientUnits="userSpaceOnUse">
<stop stop-color="#F05A8E"/>
<stop offset="1" stop-color="#ED1C24"/>
</linearGradient>
</defs>
</svg>
