<svg width="72" height="72" viewBox="0 0 72 72" fill="none" xmlns="http://www.w3.org/2000/svg">
<rect x="0.320113" y="0.320113" width="71.3598" height="71.3598" rx="35.6799" stroke="white" stroke-width="0.640226"/>
<rect x="0.320113" y="0.320113" width="71.3598" height="71.3598" rx="35.6799" stroke="url(#paint0_linear_990_1967)" stroke-width="0.640226"/>
<circle cx="36.0004" cy="35.9999" r="30.6" fill="#D9D9D9"/>
<circle cx="36.0004" cy="35.9999" r="30.6" fill="url(#paint1_linear_990_1967)"/>
<path d="M47.1523 23.9626C48.1826 23.9626 49.1708 24.3719 49.8994 25.1003L50.0322 25.24C50.6776 25.9527 51.0381 26.8814 51.0381 27.8474V44.1521C51.0381 45.1181 50.6775 46.0469 50.0322 46.7595L49.8994 46.8992C49.1708 47.6277 48.1827 48.0378 47.1523 48.0378H24.8477C23.8816 48.0378 22.9529 47.6774 22.2402 47.032L22.1006 46.8992C21.3721 46.1706 20.9629 45.1824 20.9629 44.1521V27.8474C20.9629 26.817 21.372 25.8289 22.1006 25.1003L22.2402 24.9675C22.9529 24.3222 23.8817 23.9626 24.8477 23.9626H47.1523ZM22.7324 44.1521C22.7324 44.713 22.9559 45.2516 23.3525 45.6482L23.5068 45.7888C23.8832 46.0972 24.3568 46.2673 24.8477 46.2673H47.1523C47.7133 46.2673 48.2518 46.0448 48.6484 45.6482C49.0451 45.2516 49.2676 44.713 49.2676 44.1521V29.6238C47.7744 30.4129 46.2951 31.1898 44.8018 31.9939L44.8008 31.9949C43.7136 32.5647 42.6297 33.1379 41.5459 33.7117C40.4622 34.2854 39.3778 34.8593 38.29 35.4294C37.3733 36.0084 36.2765 36.2326 35.2061 36.0583L35.1973 36.0564L35.1895 36.0544C34.4663 35.8418 33.7742 35.5347 33.1318 35.1404V35.1394C29.6594 33.3001 26.2033 31.4478 22.7324 29.6228V44.1521ZM24.6475 25.7419C24.2507 25.7792 23.8727 25.9285 23.5576 26.1726L23.4053 26.3015C23.0356 26.6488 22.8068 27.1181 22.7559 27.6208C23.5847 28.0641 24.4202 28.5075 25.2559 28.949L27.8359 30.3083L34.2109 33.698L34.2207 33.7029L34.2295 33.7107C34.5662 33.969 34.9549 34.1523 35.3682 34.2488C35.777 34.3442 36.2012 34.3519 36.6133 34.2722C37.1566 34.0641 37.6787 33.8033 38.1709 33.4929L38.1787 33.488L38.2422 33.6072L38.1797 33.488C41.8731 31.5222 45.565 29.5715 49.2432 27.6062C49.1961 27.1724 49.0177 26.7644 48.7295 26.4392L48.5898 26.2966C48.2 25.933 47.6864 25.7311 47.1533 25.7322H24.8477L24.6475 25.7419Z" fill="white" stroke="white" stroke-width="0.27"/>
<defs>
<linearGradient id="paint0_linear_990_1967" x1="1.96259e-07" y1="36" x2="51.6796" y2="43.4538" gradientUnits="userSpaceOnUse">
<stop stop-color="#F05A8E"/>
<stop offset="1" stop-color="#ED1C24"/>
</linearGradient>
<linearGradient id="paint1_linear_990_1967" x1="5.40039" y1="35.9999" x2="49.3281" y2="42.3356" gradientUnits="userSpaceOnUse">
<stop stop-color="#F05A8E"/>
<stop offset="1" stop-color="#ED1C24"/>
</linearGradient>
</defs>
</svg>
