<svg width="476" height="246" viewBox="0 0 476 246" fill="none" xmlns="http://www.w3.org/2000/svg">
<path d="M543 -59.6572C543 21.3664 510.813 99.0715 453.521 156.364C396.229 213.656 318.524 245.843 237.5 245.843C156.476 245.843 78.7713 213.656 21.4789 156.364C-35.8135 99.0716 -68 21.3665 -68 -59.6572L237.5 -59.6572H543Z" fill="#D9D9D9"/>
<path d="M543 -59.6572C543 21.3664 510.813 99.0715 453.521 156.364C396.229 213.656 318.524 245.843 237.5 245.843C156.476 245.843 78.7713 213.656 21.4789 156.364C-35.8135 99.0716 -68 21.3665 -68 -59.6572L237.5 -59.6572H543Z" fill="url(#paint0_linear_3263_6698)"/>
<defs>
<linearGradient id="paint0_linear_3263_6698" x1="260.311" y1="-58.8425" x2="306.857" y2="177.286" gradientUnits="userSpaceOnUse">
<stop stop-color="#F05A8E"/>
<stop offset="1" stop-color="#ED1C24"/>
</linearGradient>
</defs>
</svg>
