<svg width="25" height="24" viewBox="0 0 25 24" fill="none" xmlns="http://www.w3.org/2000/svg">
<path d="M21.6693 -0.000244141H3.0026C1.53594 -0.000244141 0.335938 1.19976 0.335938 2.66642V21.3331C0.335938 22.8011 1.53594 23.9998 3.0026 23.9998H12.3359V14.6664H9.66927V11.3664H12.3359V8.63309C12.3359 5.74776 13.9519 3.72109 17.3573 3.72109L19.7613 3.72376V7.19709H18.1653C16.8399 7.19709 16.3359 8.19176 16.3359 9.11442V11.3678H19.7599L19.0026 14.6664H16.3359V23.9998H21.6693C23.1359 23.9998 24.3359 22.8011 24.3359 21.3331V2.66642C24.3359 1.19976 23.1359 -0.000244141 21.6693 -0.000244141Z" fill="#D9D9D9"/>
<path d="M21.6693 -0.000244141H3.0026C1.53594 -0.000244141 0.335938 1.19976 0.335938 2.66642V21.3331C0.335938 22.8011 1.53594 23.9998 3.0026 23.9998H12.3359V14.6664H9.66927V11.3664H12.3359V8.63309C12.3359 5.74776 13.9519 3.72109 17.3573 3.72109L19.7613 3.72376V7.19709H18.1653C16.8399 7.19709 16.3359 8.19176 16.3359 9.11442V11.3678H19.7599L19.0026 14.6664H16.3359V23.9998H21.6693C23.1359 23.9998 24.3359 22.8011 24.3359 21.3331V2.66642C24.3359 1.19976 23.1359 -0.000244141 21.6693 -0.000244141Z" fill="url(#paint0_linear_1118_1299)"/>
<defs>
<linearGradient id="paint0_linear_1118_1299" x1="0.335938" y1="11.9998" x2="17.5625" y2="14.4844" gradientUnits="userSpaceOnUse">
<stop stop-color="#F05A8E"/>
<stop offset="1" stop-color="#ED1C24"/>
</linearGradient>
</defs>
</svg>
