<svg width="33" height="32" viewBox="0 0 33 32" fill="none" xmlns="http://www.w3.org/2000/svg">
<g clip-path="url(#clip0_4087_2343)">
<path d="M16.6666 28C23.294 28 28.6666 22.6274 28.6666 16C28.6666 9.37258 23.294 4 16.6666 4C10.0392 4 4.66663 9.37258 4.66663 16C4.66663 22.6274 10.0392 28 16.6666 28Z" fill="#D9D9D9"/>
<path d="M16.6666 28C23.294 28 28.6666 22.6274 28.6666 16C28.6666 9.37258 23.294 4 16.6666 4C10.0392 4 4.66663 9.37258 4.66663 16C4.66663 22.6274 10.0392 28 16.6666 28Z" fill="url(#paint0_linear_4087_2343)"/>
<path d="M9.13571 16.5872C10.5385 15.8145 12.1044 15.1696 13.5675 14.5214C16.0846 13.4597 18.6117 12.4164 21.1643 11.4451C21.6609 11.2796 22.5533 11.1178 22.6408 11.8538C22.5928 12.8956 22.3958 13.9313 22.2606 14.967C21.9175 17.2446 21.5208 19.5144 21.1341 21.7845C21.0008 22.5406 20.0536 22.9321 19.4475 22.4482C17.9909 21.4642 16.5231 20.49 15.0851 19.4832C14.6141 19.0046 15.0509 18.3172 15.4715 17.9754C16.6712 16.7931 17.9435 15.7886 19.0805 14.5452C19.3872 13.8046 18.481 14.4288 18.1821 14.6201C16.5397 15.7519 14.9375 16.9528 13.2059 17.9475C12.3214 18.4344 11.2905 18.0183 10.4064 17.7465C9.61371 17.4184 8.45211 17.0877 9.13561 16.5873L9.13571 16.5872Z" fill="white"/>
</g>
<defs>
<linearGradient id="paint0_linear_4087_2343" x1="4.66663" y1="16" x2="21.8932" y2="18.4846" gradientUnits="userSpaceOnUse">
<stop stop-color="#F05A8E"/>
<stop offset="1" stop-color="#ED1C24"/>
</linearGradient>
<clipPath id="clip0_4087_2343">
<rect width="24" height="24" fill="white" transform="translate(4.66663 4)"/>
</clipPath>
</defs>
</svg>
