<svg width="33" height="32" viewBox="0 0 33 32" fill="none" xmlns="http://www.w3.org/2000/svg">
<path d="M16.9946 5.33325C17.7066 5.33725 19.4879 5.35459 21.3813 5.43059L22.0533 5.45992C23.9586 5.54925 25.8626 5.70392 26.8079 5.96659C28.0679 6.32125 29.0573 7.35325 29.3919 8.66259C29.9253 10.7426 29.9919 14.7986 29.9999 15.7813L30.0013 15.9839V16.2159C29.9919 17.1986 29.9253 21.2559 29.3919 23.3346C29.0533 24.6479 28.0626 25.6813 26.8079 26.0306C25.8626 26.2933 23.9586 26.4479 22.0533 26.5373L21.3813 26.5679C19.4879 26.6426 17.7066 26.6613 16.9946 26.6639L16.6813 26.6653H16.3413C14.8346 26.6559 8.53327 26.5879 6.52794 26.0306C5.26927 25.6759 4.2786 24.6439 3.94394 23.3346C3.4106 21.2546 3.34394 17.1986 3.33594 16.2159V15.7813C3.34394 14.7986 3.4106 10.7413 3.94394 8.66259C4.2826 7.34925 5.27327 6.31592 6.52927 5.96792C8.53327 5.40925 14.8359 5.34125 16.3426 5.33325H16.9946ZM14.0013 11.3333V20.6666L22.0013 15.9999L14.0013 11.3333Z" fill="#D9D9D9"/>
<path d="M16.9946 5.33325C17.7066 5.33725 19.4879 5.35459 21.3813 5.43059L22.0533 5.45992C23.9586 5.54925 25.8626 5.70392 26.8079 5.96659C28.0679 6.32125 29.0573 7.35325 29.3919 8.66259C29.9253 10.7426 29.9919 14.7986 29.9999 15.7813L30.0013 15.9839V16.2159C29.9919 17.1986 29.9253 21.2559 29.3919 23.3346C29.0533 24.6479 28.0626 25.6813 26.8079 26.0306C25.8626 26.2933 23.9586 26.4479 22.0533 26.5373L21.3813 26.5679C19.4879 26.6426 17.7066 26.6613 16.9946 26.6639L16.6813 26.6653H16.3413C14.8346 26.6559 8.53327 26.5879 6.52794 26.0306C5.26927 25.6759 4.2786 24.6439 3.94394 23.3346C3.4106 21.2546 3.34394 17.1986 3.33594 16.2159V15.7813C3.34394 14.7986 3.4106 10.7413 3.94394 8.66259C4.2826 7.34925 5.27327 6.31592 6.52927 5.96792C8.53327 5.40925 14.8359 5.34125 16.3426 5.33325H16.9946ZM14.0013 11.3333V20.6666L22.0013 15.9999L14.0013 11.3333Z" fill="url(#paint0_linear_1118_1300)"/>
<defs>
<linearGradient id="paint0_linear_1118_1300" x1="3.33594" y1="15.9993" x2="22.2587" y2="19.4108" gradientUnits="userSpaceOnUse">
<stop stop-color="#F05A8E"/>
<stop offset="1" stop-color="#ED1C24"/>
</linearGradient>
</defs>
</svg>
